<?xml version="1.0" encoding="UTF-8" standalone="no"?>
<!DOCTYPE svg PUBLIC "-//W3C//DTD SVG 1.1//EN" "http://www.w3.org/Graphics/SVG/1.1/DTD/svg11.dtd">
<svg width="100%" height="100%" viewBox="0 0 204 59" version="1.1" xmlns="http://www.w3.org/2000/svg" xmlns:xlink="http://www.w3.org/1999/xlink" xml:space="preserve" xmlns:serif="http://www.serif.com/" style="fill-rule:evenodd;clip-rule:evenodd;stroke-miterlimit:10;">
    <path d="M196.396,59L7.554,59C3.401,59 0,55.679 0,51.625L0,7.375C0,3.321 3.401,0 7.554,0L196.396,0C200.549,0 203.95,3.321 203.95,7.375L203.95,51.625C203.95,55.679 200.549,59 196.396,59Z" style="fill-rule:nonzero;"/>
    <path d="M196.396,1.182C199.894,1.182 202.74,3.96 202.74,7.375L202.74,51.625C202.74,55.04 199.894,57.818 196.396,57.818L7.554,57.818C4.056,57.818 1.21,55.04 1.21,51.625L1.21,7.375C1.21,3.96 4.056,1.182 7.554,1.182L196.396,1.182ZM196.396,0L7.554,0C3.401,0 0,3.321 0,7.375L0,51.625C0,55.679 3.401,59 7.554,59L196.396,59C200.549,59 203.95,55.679 203.95,51.625L203.95,7.375C203.95,3.321 200.549,0 196.396,0Z" style="fill:rgb(166,166,166);fill-rule:nonzero;"/>
    <path d="M71.636,15.11C71.636,16.341 71.258,17.328 70.514,18.063C69.658,18.935 68.544,19.374 67.179,19.374C65.874,19.374 64.76,18.928 63.846,18.049C62.93,17.156 62.473,16.061 62.473,14.75C62.473,13.439 62.93,12.344 63.846,11.459C64.76,10.572 65.874,10.126 67.179,10.126C67.829,10.126 68.448,10.257 69.039,10.5C69.628,10.745 70.108,11.077 70.455,11.487L69.666,12.265C69.06,11.566 68.234,11.221 67.179,11.221C66.227,11.221 65.402,11.546 64.701,12.2C64.008,12.857 63.661,13.706 63.661,14.75C63.661,15.794 64.008,16.651 64.701,17.307C65.402,17.954 66.227,18.286 67.179,18.286C68.189,18.286 69.039,17.954 69.709,17.3C70.151,16.867 70.402,16.269 70.469,15.506L67.179,15.506L67.179,14.44L71.568,14.44C71.621,14.671 71.636,14.894 71.636,15.11Z" style="fill:white;fill-rule:nonzero;stroke:white;stroke-width:0.16px;"/>
    <path d="M78.598,11.415L74.476,11.415L74.476,14.217L78.192,14.217L78.192,15.283L74.476,15.283L74.476,18.085L78.598,18.085L78.598,19.171L73.309,19.171L73.309,10.329L78.598,10.329L78.598,11.415Z" style="fill:white;fill-rule:nonzero;stroke:white;stroke-width:0.16px;"/>
    <path d="M83.512,19.171L82.345,19.171L82.345,11.415L79.816,11.415L79.816,10.329L86.042,10.329L86.042,11.415L83.512,11.415L83.512,19.171Z" style="fill:white;fill-rule:nonzero;stroke:white;stroke-width:0.16px;"/>
    <rect x="90.548" y="10.329" width="1.165" height="8.843" style="fill:white;fill-rule:nonzero;stroke:white;stroke-width:0.16px;"/>
    <path d="M96.878,19.171L95.721,19.171L95.721,11.415L93.183,11.415L93.183,10.329L99.416,10.329L99.416,11.415L96.878,11.415L96.878,19.171Z" style="fill:white;fill-rule:nonzero;stroke:white;stroke-width:0.16px;"/>
    <path d="M111.204,18.034C110.311,18.928 109.204,19.374 107.884,19.374C106.556,19.374 105.45,18.928 104.556,18.034C103.665,17.141 103.221,16.046 103.221,14.75C103.221,13.454 103.665,12.359 104.556,11.466C105.45,10.572 106.556,10.126 107.884,10.126C109.196,10.126 110.303,10.572 111.196,11.474C112.095,12.373 112.539,13.461 112.539,14.75C112.539,16.046 112.095,17.141 111.204,18.034ZM105.42,17.293C106.092,17.954 106.909,18.286 107.884,18.286C108.851,18.286 109.676,17.954 110.341,17.293C111.011,16.631 111.351,15.781 111.351,14.75C111.351,13.719 111.011,12.869 110.341,12.207C109.676,11.546 108.851,11.214 107.884,11.214C106.909,11.214 106.092,11.546 105.42,12.207C104.749,12.869 104.409,13.719 104.409,14.75C104.409,15.781 104.749,16.631 105.42,17.293Z" style="fill:white;fill-rule:nonzero;stroke:white;stroke-width:0.16px;"/>
    <path d="M114.176,19.171L114.176,10.329L115.592,10.329L119.996,17.206L120.047,17.206L119.996,15.506L119.996,10.329L121.161,10.329L121.161,19.171L119.945,19.171L115.334,11.955L115.283,11.955L115.334,13.662L115.334,19.171L114.176,19.171Z" style="fill:white;fill-rule:nonzero;stroke:white;stroke-width:0.16px;"/>
    <path d="M102.934,32.085C99.386,32.085 96.487,34.721 96.487,38.359C96.487,41.968 99.386,44.632 102.934,44.632C106.49,44.632 109.389,41.968 109.389,38.359C109.389,34.721 106.49,32.085 102.934,32.085ZM102.934,42.161C100.987,42.161 99.312,40.592 99.312,38.359C99.312,36.097 100.987,34.556 102.934,34.556C104.881,34.556 106.564,36.097 106.564,38.359C106.564,40.592 104.881,42.161 102.934,42.161ZM88.867,32.085C85.311,32.085 82.42,34.721 82.42,38.359C82.42,41.968 85.311,44.632 88.867,44.632C92.421,44.632 95.314,41.968 95.314,38.359C95.314,34.721 92.421,32.085 88.867,32.085ZM88.867,42.161C86.919,42.161 85.238,40.592 85.238,38.359C85.238,36.097 86.919,34.556 88.867,34.556C90.814,34.556 92.489,36.097 92.489,38.359C92.489,40.592 90.814,42.161 88.867,42.161ZM72.128,34.008L72.128,36.674L78.649,36.674C78.458,38.164 77.948,39.259 77.167,40.022C76.215,40.944 74.733,41.968 72.128,41.968C68.115,41.968 64.973,38.805 64.973,34.888C64.973,30.97 68.115,27.808 72.128,27.808C74.298,27.808 75.877,28.635 77.042,29.708L78.966,27.83C77.337,26.31 75.169,25.143 72.128,25.143C66.626,25.143 62.001,29.515 62.001,34.888C62.001,40.26 66.626,44.632 72.128,44.632C75.103,44.632 77.337,43.68 79.093,41.896C80.893,40.139 81.454,37.668 81.454,35.673C81.454,35.053 81.401,34.484 81.306,34.008L72.128,34.008ZM140.576,36.075C140.046,34.672 138.408,32.085 135.073,32.085C131.769,32.085 129.017,34.627 129.017,38.359C129.017,41.873 131.74,44.632 135.391,44.632C138.342,44.632 140.046,42.875 140.746,41.851L138.556,40.426C137.825,41.47 136.83,42.161 135.391,42.161C133.961,42.161 132.936,41.521 132.279,40.26L140.873,36.788L140.576,36.075ZM131.814,38.164C131.74,35.745 133.738,34.506 135.17,34.506C136.291,34.506 137.243,35.053 137.56,35.837L131.814,38.164ZM124.829,44.25L127.654,44.25L127.654,25.812L124.829,25.812L124.829,44.25ZM120.202,33.483L120.108,33.483C119.473,32.749 118.263,32.085 116.729,32.085C113.511,32.085 110.569,34.843 110.569,38.38C110.569,41.896 113.511,44.632 116.729,44.632C118.263,44.632 119.473,43.962 120.108,43.206L120.202,43.206L120.202,44.106C120.202,46.505 118.89,47.794 116.773,47.794C115.047,47.794 113.976,46.577 113.534,45.554L111.077,46.555C111.785,48.218 113.661,50.264 116.773,50.264C120.085,50.264 122.88,48.362 122.88,43.732L122.88,32.467L120.202,32.467L120.202,33.483ZM116.971,42.161C115.024,42.161 113.394,40.57 113.394,38.38C113.394,36.169 115.024,34.556 116.971,34.556C118.89,34.556 120.402,36.169 120.402,38.38C120.402,40.57 118.89,42.161 116.971,42.161ZM153.803,25.812L147.046,25.812L147.046,44.25L149.864,44.25L149.864,37.264L153.803,37.264C156.932,37.264 160.001,35.053 160.001,31.537C160.001,28.023 156.924,25.812 153.803,25.812ZM153.876,34.699L149.864,34.699L149.864,28.377L153.876,28.377C155.98,28.377 157.181,30.083 157.181,31.537C157.181,32.964 155.98,34.699 153.876,34.699ZM171.293,32.05C169.258,32.05 167.141,32.928 166.27,34.873L168.77,35.896C169.309,34.873 170.298,34.541 171.344,34.541C172.806,34.541 174.288,35.398 174.311,36.912L174.311,37.105C173.801,36.818 172.71,36.392 171.367,36.392C168.674,36.392 165.93,37.839 165.93,40.54C165.93,43.011 168.136,44.602 170.615,44.602C172.511,44.602 173.558,43.767 174.215,42.795L174.311,42.795L174.311,44.221L177.032,44.221L177.032,37.148C177.032,33.879 174.532,32.05 171.293,32.05ZM170.954,42.154C170.032,42.154 168.748,41.708 168.748,40.592C168.748,39.165 170.349,38.617 171.735,38.617C172.976,38.617 173.558,38.885 174.311,39.237C174.09,40.944 172.585,42.154 170.954,42.154ZM186.947,32.454L183.708,40.446L183.612,40.446L180.263,32.454L177.225,32.454L182.256,43.623L179.385,49.838L182.329,49.838L190.081,32.454L186.947,32.454ZM161.549,44.25L164.374,44.25L164.374,25.812L161.549,25.812L161.549,44.25Z" style="fill:white;fill-rule:nonzero;"/>
    <path d="M15.765,11.12C15.321,11.573 15.064,12.279 15.064,13.194L15.064,45.813C15.064,46.728 15.321,47.434 15.765,47.888L15.874,47.987L34.596,29.716L34.596,29.284L15.874,11.013L15.765,11.12Z" style="fill:url(#_Linear1);fill-rule:nonzero;"/>
    <path d="M40.83,35.809L34.596,29.716L34.596,29.284L40.837,23.191L40.977,23.27L48.368,27.376C50.478,28.541 50.478,30.459 48.368,31.631L40.977,35.73L40.83,35.809Z" style="fill:url(#_Linear2);fill-rule:nonzero;"/>
    <path d="M40.977,35.73L34.596,29.5L15.765,47.888C16.465,48.607 17.608,48.693 18.907,47.974L40.977,35.73Z" style="fill:url(#_Linear3);fill-rule:nonzero;"/>
    <path d="M40.977,23.27L18.907,11.026C17.608,10.314 16.465,10.401 15.765,11.12L34.596,29.5L40.977,23.27Z" style="fill:url(#_Linear4);fill-rule:nonzero;"/>
    <defs>
        <linearGradient id="_Linear1" x1="0" y1="0" x2="1" y2="0" gradientUnits="userSpaceOnUse" gradientTransform="matrix(-24.74694,-25.3466,25.3466,-24.74694,32.9337,46.1532)"><stop offset="0" style="stop-color:rgb(0,160,255);stop-opacity:1"/><stop offset="0.01" style="stop-color:rgb(0,161,255);stop-opacity:1"/><stop offset="0.26" style="stop-color:rgb(0,190,255);stop-opacity:1"/><stop offset="0.51" style="stop-color:rgb(0,210,255);stop-opacity:1"/><stop offset="0.76" style="stop-color:rgb(0,223,255);stop-opacity:1"/><stop offset="1" style="stop-color:rgb(0,227,255);stop-opacity:1"/></linearGradient>
        <linearGradient id="_Linear2" x1="0" y1="0" x2="1" y2="0" gradientUnits="userSpaceOnUse" gradientTransform="matrix(-36.5553,0,-0,-36.5553,51.115,29.4979)"><stop offset="0" style="stop-color:rgb(255,224,0);stop-opacity:1"/><stop offset="0.41" style="stop-color:rgb(255,189,0);stop-opacity:1"/><stop offset="0.78" style="stop-color:rgb(255,165,0);stop-opacity:1"/><stop offset="1" style="stop-color:rgb(255,156,0);stop-opacity:1"/></linearGradient>
        <linearGradient id="_Linear3" x1="0" y1="0" x2="1" y2="0" gradientUnits="userSpaceOnUse" gradientTransform="matrix(-33.55883,-34.372,34.372,-33.55883,37.5071,26.1132)"><stop offset="0" style="stop-color:rgb(255,58,68);stop-opacity:1"/><stop offset="1" style="stop-color:rgb(195,17,98);stop-opacity:1"/></linearGradient>
        <linearGradient id="_Linear4" x1="0" y1="0" x2="1" y2="0" gradientUnits="userSpaceOnUse" gradientTransform="matrix(14.9855,-15.3485,15.3485,14.9855,11.0243,58.7401)"><stop offset="0" style="stop-color:rgb(50,160,113);stop-opacity:1"/><stop offset="0.07" style="stop-color:rgb(45,167,113);stop-opacity:1"/><stop offset="0.48" style="stop-color:rgb(21,207,116);stop-opacity:1"/><stop offset="0.8" style="stop-color:rgb(6,231,117);stop-opacity:1"/><stop offset="1" style="stop-color:rgb(0,240,118);stop-opacity:1"/></linearGradient>
    </defs>
</svg>
